HIERARCHY
ROOT Hips
{
	OFFSET 0.000000 0.000000 0.000000
	CHANNELS 6 Xposition Yposition Zposition Yrotation Xrotation Zrotation
	JOINT Chest
	{
		OFFSET 0.000000 -0.009281 11.569106
		CHANNELS 3 Yrotation Xrotation Zrotation
		JOINT Chest2
		{
			OFFSET -0.000000 0.016865 9.269641
			CHANNELS 3 Yrotation Xrotation Zrotation
			JOINT Chest3
			{
				OFFSET -0.000000 0.000001 8.374491
				CHANNELS 3 Yrotation Xrotation Zrotation
				JOINT Chest4
				{
					OFFSET -0.000000 0.000001 8.374493
					CHANNELS 3 Yrotation Xrotation Zrotation
					JOINT Neck
					{
						OFFSET -0.000000 0.000002 12.152554
						CHANNELS 3 Yrotation Xrotation Zrotation
						JOINT Head
						{
							OFFSET -0.000000 0.040101 7.802319
							CHANNELS 3 Yrotation Xrotation Zrotation
							End Site
							{
								OFFSET -0.000000 0.020947 14.853096
							}
						}
					}
					JOINT RightCollar
					{
						OFFSET 2.894404 0.000001 6.791374
						CHANNELS 3 Yrotation Xrotation Zrotation
						JOINT RightShoulder
						{
							OFFSET 13.574684 0.000001 0.000000
							CHANNELS 3 Yrotation Xrotation Zrotation
							JOINT RightElbow
							{
								OFFSET 23.923903 0.000002 0.000000
								CHANNELS 3 Yrotation Xrotation Zrotation
								JOINT RightWrist
								{
									OFFSET 19.846718 0.012767 0.000000
									CHANNELS 3 Yrotation Xrotation Zrotation
									End Site
									{
										OFFSET 14.973145 0.000001 0.000000
									}
								}
							}
						}
					}
					JOINT LeftCollar
					{
						OFFSET -2.894404 0.000001 6.791374
						CHANNELS 3 Yrotation Xrotation Zrotation
						JOINT LeftShoulder
						{
							OFFSET -13.574684 -0.000001 0.000000
							CHANNELS 3 Yrotation Xrotation Zrotation
							JOINT LeftElbow
							{
								OFFSET -23.923903 -0.000002 0.000000
								CHANNELS 3 Yrotation Xrotation Zrotation
								JOINT LeftWrist
								{
									OFFSET -19.846718 0.012763 0.000000
									CHANNELS 3 Yrotation Xrotation Zrotation
									End Site
									{
										OFFSET -14.973145 -0.000001 0.000000
									}
								}
							}
						}
					}
				}
			}
		}
	}
	JOINT RightHip
	{
		OFFSET 9.469263 0.004643 0.045487
		CHANNELS 3 Yrotation Xrotation Zrotation
		JOINT RightKnee
		{
			OFFSET 0.000000 0.002661 -40.478676
			CHANNELS 3 Yrotation Xrotation Zrotation
			JOINT RightAnkle
			{
				OFFSET 0.000000 0.049106 -35.224068
				CHANNELS 3 Yrotation Xrotation Zrotation
				JOINT RightToe
				{
					OFFSET -0.000001 12.539529 -6.151390
					CHANNELS 3 Yrotation Xrotation Zrotation
					End Site
					{
						OFFSET -0.000001 5.044994 -1.291870
					}
				}
			}
		}
	}
	JOINT LeftHip
	{
		OFFSET -9.469263 0.004641 0.045487
		CHANNELS 3 Yrotation Xrotation Zrotation
		JOINT LeftKnee
		{
			OFFSET 0.000000 0.002661 -40.478676
			CHANNELS 3 Yrotation Xrotation Zrotation
			JOINT LeftAnkle
			{
				OFFSET 0.000000 0.049106 -35.224068
				CHANNELS 3 Yrotation Xrotation Zrotation
				JOINT LeftToe
				{
					OFFSET -0.000001 12.539529 -6.151390
					CHANNELS 3 Yrotation Xrotation Zrotation
					End Site
					{
						OFFSET -0.000001 5.044994 -1.291870
					}
				}
			}
		}
	}
}
MOTION
Frames: 8
Frame Time: 0.016667
11.614394 2.522837 82.846107 -5.231982 -0.276616 -102.525279 1.664124 0.103563 -3.383773 0.736162 0.037263 -1.503867 0.736163 0.037262 -1.503864 0.552217 0.026135 -1.127944 -0.431725 -22.753185 3.771325 0.237551 -6.123434 6.683594 6.947651 3.908894 -5.983827 59.443130 27.396029 -3.228214 -6.155227 9.966422 9.137036 -62.535163 16.145070 20.442066 -9.494167 -2.208008 -11.174014 -58.902916 39.606754 -57.769173 8.190665 7.822454 -45.304088 71.156836 14.871033 -59.241256 -0.389629 -9.871528 -2.021274 1.129995 -2.345823 0.825923 -1.470364 7.734172 -4.170122 -0.042675 -0.086195 -0.000576 -0.434277 -8.281342 -1.333539 0.281750 -2.371556 1.326459 -0.384023 5.068267 -0.089769 0.143172 0.094706 -0.003055 
11.634397 2.534091 82.846031 -5.133660 -0.233531 -102.527635 1.615151 0.117970 -3.336650 0.714491 0.043948 -1.483018 0.714490 0.043949 -1.483020 0.535978 0.031229 -1.112319 -0.522113 -22.589123 4.227771 0.205344 -5.830547 7.485624 6.937363 4.081011 -6.097024 58.763690 27.784031 -3.336401 -6.079619 9.214461 9.831849 -61.970156 15.101830 20.031632 -9.252591 -2.011226 -11.221137 -58.377832 39.671620 -57.844449 8.169098 7.844038 -45.144829 71.292811 14.420114 -58.936849 -0.417909 -9.864155 -2.005775 1.122040 -2.167197 0.799233 -1.428440 7.678243 -4.138908 -0.050771 -0.090566 -0.000461 -0.462087 -8.260170 -1.329095 0.284223 -2.214056 1.416505 -0.444059 4.968987 -0.172577 0.161997 0.096196 -0.004031 
11.651633 2.549885 82.846748 -5.030229 -0.188802 -102.534547 1.554986 0.140220 -3.285325 0.687281 0.053501 -1.460981 0.687281 0.053501 -1.460984 0.515592 0.038483 -1.095798 -0.578819 -22.440025 4.635223 0.221283 -5.566760 8.208742 6.899513 4.208338 -6.215200 58.080609 28.207547 -3.419472 -6.028444 8.435797 10.536810 -61.336103 13.951360 19.573615 -8.962881 -1.819597 -11.249995 -57.842208 39.712325 -57.968690 8.135814 7.884297 -44.990740 71.408870 13.919258 -58.616082 -0.445585 -9.835045 -1.951587 1.105875 -2.010690 0.758081 -1.384643 7.620695 -4.132127 -0.055055 -0.087961 -0.000311 -0.488394 -8.229649 -1.307322 0.281121 -2.059447 1.471889 -0.502839 4.868997 -0.236349 0.180537 0.097305 -0.003149 
11.664503 2.565842 82.847824 -4.919272 -0.148468 -102.545127 1.495622 0.153786 -3.221909 0.660987 0.059393 -1.434072 0.660987 0.059392 -1.434077 0.495883 0.042993 -1.075616 -0.613264 -22.285509 4.991929 0.265150 -5.293366 8.847130 6.831886 4.438768 -6.369320 57.340913 28.616549 -3.572244 -5.982538 7.685687 11.265792 -60.752600 12.797126 19.150083 -8.679897 -1.535170 -11.314793 -57.228021 39.715258 -58.038761 8.145839 7.936471 -44.843604 71.551375 13.394170 -58.296457 -0.465130 -9.787364 -1.885319 1.083902 -1.870621 0.702822 -1.338841 7.562070 -4.152886 -0.057265 -0.080928 0.000503 -0.504825 -8.184874 -1.239406 0.270015 -1.915804 1.481140 -0.557076 4.772442 -0.297756 0.196028 0.097706 -0.001571 
11.676220 2.582719 82.848984 -4.800826 -0.108970 -102.554136 1.427914 0.169044 -3.153512 0.631945 0.066955 -1.404172 0.631945 0.066956 -1.404175 0.474116 0.048766 -1.053199 -0.629808 -22.133332 5.309369 0.331606 -5.024845 9.420123 6.764774 4.780827 -6.532800 56.572401 28.960603 -3.771627 -5.979906 7.058592 12.000845 -60.290934 11.814073 18.769934 -8.378073 -1.144385 -11.361346 -56.547587 39.620319 -58.019547 8.217862 8.018829 -44.727675 71.696045 12.832319 -57.999467 -0.483965 -9.731904 -1.846470 1.065777 -1.733524 0.651344 -1.291685 7.505213 -4.130704 -0.059977 -0.074609 0.000773 -0.521149 -8.128360 -1.133593 0.265329 -1.780583 1.464729 -0.613423 4.679194 -0.376038 0.207021 0.097576 -0.000502 
11.685879 2.603843 82.849960 -4.671883 -0.068875 -102.551643 1.370842 0.196560 -3.119262 0.608257 0.079721 -1.389506 0.608256 0.079721 -1.389504 0.456376 0.058409 -1.042209 -0.657675 -21.989217 5.624060 0.377383 -4.771309 9.985382 6.670319 5.149997 -6.668705 55.800381 29.213972 -3.959230 -5.983524 6.605192 12.789641 -59.834452 10.888997 18.368489 -8.152004 -0.665085 -11.349329 -55.783524 39.473647 -57.914328 8.346857 8.098514 -44.656432 71.845503 12.206860 -57.648374 -0.512051 -9.653738 -1.836924 1.064760 -1.621942 0.615791 -1.248106 7.458707 -4.062722 -0.063235 -0.067712 -0.000632 -0.540889 -8.048891 -1.025244 0.264880 -1.664305 1.434302 -0.664828 4.593952 -0.445871 0.213818 0.095278 0.000831 
11.692944 2.630282 82.850487 -4.541865 -0.032569 -102.539014 1.314167 0.221967 -3.095643 0.583840 0.092123 -1.380843 0.583840 0.092124 -1.380843 0.438091 0.067774 -1.035720 -0.677168 -21.847128 5.926520 0.435726 -4.522451 10.531391 6.592026 5.493340 -6.801353 54.988494 29.421088 -4.134891 -5.926037 6.296792 13.644000 -59.331258 9.881481 17.875672 -7.976848 -0.141548 -11.373551 -54.952683 39.351090 -57.728130 8.436242 8.157110 -44.685150 72.050313 11.526667 -57.200133 -0.544137 -9.562503 -1.820511 1.076710 -1.540288 0.584078 -1.213868 7.434109 -4.064769 -0.064269 -0.068228 -0.002663 -0.560797 -7.957413 -0.924743 0.267976 -1.561225 1.398875 -0.711960 4.521156 -0.511503 0.217302 0.082221 0.001949 
11.696490 2.661608 82.850159 -4.405931 0.000765 -102.512738 1.269202 0.239619 -3.081527 0.565764 0.100057 -1.376888 0.565764 0.100056 -1.376886 0.424551 0.073769 -1.032761 -0.701493 -21.699624 6.219981 0.484198 -4.263564 11.060508 6.521570 5.797902 -6.910505 54.146536 29.678521 -4.303622 -5.830850 5.991480 14.574980 -58.869366 8.798283 17.357958 -7.813372 0.365435 -11.427087 -54.154616 39.298661 -57.533907 8.462794 8.220433 -44.830274 72.290975 10.837611 -56.725513 -0.568883 -9.446043 -1.773480 1.083641 -1.489395 0.525712 -1.182261 7.407269 -4.073714 -0.060601 -0.057942 -0.003074 -0.578909 -7.852601 -0.829901 0.271388 -1.472726 1.352879 -0.750533 4.459521 -0.576532 0.216433 0.066320 0.003325 
